<?xml version="1.0" encoding="UTF-8" standalone="no"?><svg xmlns="http://www.w3.org/2000/svg" xmlns:xlink="http://www.w3.org/1999/xlink" contentScriptType="application/ecmascript" contentStyleType="text/css" height="741px" preserveAspectRatio="none" style="width:2289px;height:741px;" version="1.1" viewBox="0 0 2289 741" width="2289px" zoomAndPan="magnify"><defs><filter height="300%" id="fexjfrbucklwg" width="300%" x="-1" y="-1"><feGaussianBlur result="blurOut" stdDeviation="2.0"/><feColorMatrix in="blurOut" result="blurOut2" type="matrix" values="0 0 0 0 0 0 0 0 0 0 0 0 0 0 0 0 0 0 .4 0"/><feOffset dx="4.0" dy="4.0" in="blurOut2" result="blurOut3"/><feBlend in="SourceGraphic" in2="blurOut3" mode="normal"/></filter></defs><g><!--cluster InputData--><polygon fill="#FFFFFF" filter="url(#fexjfrbucklwg)" points="22,183,103,183,110,205.2969,1233,205.2969,1233,729,22,729,22,183" style="stroke: #000000; stroke-width: 1.5;"/><line style="stroke: #000000; stroke-width: 1.5;" x1="22" x2="110" y1="205.2969" y2="205.2969"/><text fill="#000000" font-family="sans-serif" font-size="14" font-weight="bold" lengthAdjust="spacingAndGlyphs" textLength="75" x="26" y="197.9951">InputData</text><!--cluster InputDataObject--><polygon fill="#FFFFFF" filter="url(#fexjfrbucklwg)" points="46,399.5,178,399.5,185,421.7969,1036,421.7969,1036,705,46,705,46,399.5" style="stroke: #000000; stroke-width: 1.5;"/><line style="stroke: #000000; stroke-width: 1.5;" x1="46" x2="185" y1="421.7969" y2="421.7969"/><text fill="#000000" font-family="sans-serif" font-size="14" font-weight="bold" lengthAdjust="spacingAndGlyphs" textLength="126" x="50" y="414.4951">InputDataObject</text><!--cluster bms-network--><polygon fill="#FFFFFF" filter="url(#fexjfrbucklwg)" points="1389,393,1500,393,1507,415.2969,2267,415.2969,2267,582,1389,582,1389,393" style="stroke: #000000; stroke-width: 1.5;"/><line style="stroke: #000000; stroke-width: 1.5;" x1="1389" x2="1507" y1="415.2969" y2="415.2969"/><text fill="#000000" font-family="sans-serif" font-size="14" font-weight="bold" lengthAdjust="spacingAndGlyphs" textLength="105" x="1393" y="407.9951">bms-network</text><!--cluster spinal--><polygon fill="#FFFFFF" filter="url(#fexjfrbucklwg)" points="1624,606,1676,606,1683,628.2969,1898,628.2969,1898,705,1624,705,1624,606" style="stroke: #000000; stroke-width: 1.5;"/><line style="stroke: #000000; stroke-width: 1.5;" x1="1624" x2="1683" y1="628.2969" y2="628.2969"/><text fill="#000000" font-family="sans-serif" font-size="14" font-weight="bold" lengthAdjust="spacingAndGlyphs" textLength="46" x="1628" y="620.9951">spinal</text><!--class InputData--><rect fill="#FEFECE" filter="url(#fexjfrbucklwg)" height="150.4375" id="InputData" style="stroke: #A80036; stroke-width: 1.5;" width="509" x="640.5" y="218"/><ellipse cx="859.75" cy="234" fill="#ADD1B2" rx="11" ry="11" style="stroke: #A80036; stroke-width: 1.0;"/><path d="M862.0938,229.6719 L862.2656,229.75 C862.4844,229.4375 862.6875,229.3438 862.9844,229.3438 C863.2813,229.3438 863.5625,229.4844 863.7188,229.75 C863.8125,229.9063 863.8281,230.0313 863.8281,230.4688 L863.8281,231.8906 C863.8281,232.3125 863.7969,232.5 863.6875,232.6563 C863.5156,232.875 863.25,233.0156 862.9844,233.0156 C862.7656,233.0156 862.5313,232.9063 862.3906,232.7656 C862.25,232.6406 862.2188,232.5156 862.1563,232.1094 C862.0625,231.7031 861.8906,231.4844 861.4063,231.2031 C860.9375,230.9531 860.3281,230.7969 859.75,230.7969 C858.0156,230.7969 856.7656,232.1094 856.7656,233.8906 L856.7656,234.9844 C856.7656,236.6875 858.0625,237.7813 860.1094,237.7813 C860.875,237.7813 861.5625,237.6563 861.9844,237.3906 C862.1719,237.2969 862.1719,237.2969 862.625,236.8125 C862.8125,236.625 863.0156,236.5469 863.2344,236.5469 C863.7031,236.5469 864.0938,236.9375 864.0938,237.3906 C864.0938,237.7813 863.7656,238.2344 863.1875,238.6406 C862.4375,239.1875 861.2813,239.4844 860.0625,239.4844 C857.1719,239.4844 855.0625,237.5938 855.0625,235.0156 L855.0625,233.8906 C855.0625,231.1719 857.0625,229.0938 859.6875,229.0938 C860.5625,229.0938 861.1563,229.2344 862.0938,229.6719 Z "/><text fill="#000000" font-family="sans-serif" font-size="12" lengthAdjust="spacingAndGlyphs" textLength="62" x="880.25" y="238.1543">InputData</text><line style="stroke: #A80036; stroke-width: 1.5;" x1="641.5" x2="1148.5" y1="250" y2="250"/><rect fill="none" height="6" style="stroke: #C82930; stroke-width: 1.0;" width="6" x="648.5" y="258.9023"/><text fill="#000000" font-family="sans-serif" font-size="11" lengthAdjust="spacingAndGlyphs" textLength="166" x="660.5" y="264.2104">onData : onDataFunctionType</text><rect fill="none" height="6" style="stroke: #C82930; stroke-width: 1.0;" width="6" x="648.5" y="271.707"/><text fill="#000000" font-family="sans-serif" font-size="11" lengthAdjust="spacingAndGlyphs" textLength="154" x="660.5" y="277.0151">devices : InputDataDevice[]</text><line style="stroke: #A80036; stroke-width: 1.5;" x1="641.5" x2="1148.5" y1="283.6094" y2="283.6094"/><rect fill="#F24D5C" height="6" style="stroke: #C82930; stroke-width: 1.0;" width="6" x="648.5" y="292.5117"/><text fill="#000000" font-family="sans-serif" font-size="11" lengthAdjust="spacingAndGlyphs" textLength="90" x="660.5" y="297.8198">onDataInterval()</text><ellipse cx="651.5" cy="308.3164" fill="#84BE84" rx="3" ry="3" style="stroke: #038048; stroke-width: 1.0;"/><text fill="#000000" font-family="sans-serif" font-size="11" lengthAdjust="spacingAndGlyphs" textLength="303" x="660.5" y="310.6245">setOnDataCBFunc(onData: onDataFunctionType): void</text><rect fill="#F24D5C" height="6" style="stroke: #C82930; stroke-width: 1.0;" width="6" x="648.5" y="318.1211"/><text fill="#000000" font-family="sans-serif" font-size="11" lengthAdjust="spacingAndGlyphs" textLength="85" x="660.5" y="323.4292">generateData()</text><rect fill="#F24D5C" height="6" style="stroke: #C82930; stroke-width: 1.0;" width="6" x="648.5" y="330.9258"/><text fill="#000000" font-family="sans-serif" font-size="11" lengthAdjust="spacingAndGlyphs" textLength="283" x="660.5" y="336.2339">generateDataDevice(id: number): InputDataDevice</text><rect fill="#F24D5C" height="6" style="stroke: #C82930; stroke-width: 1.0;" width="6" x="648.5" y="343.7305"/><text fill="#000000" font-family="sans-serif" font-size="11" lengthAdjust="spacingAndGlyphs" textLength="483" x="660.5" y="349.0386">updateDevice(deviceOrEnpointGroup: InputDataDevice|InputDataEndpointGroup): void</text><rect fill="#F24D5C" height="6" style="stroke: #C82930; stroke-width: 1.0;" width="6" x="648.5" y="356.5352"/><text fill="#000000" font-family="sans-serif" font-size="11" lengthAdjust="spacingAndGlyphs" textLength="292" x="660.5" y="361.8433">getAndUpdateOneRandomDevice(): InputDataDevice</text><!--class onDataFunctionType--><rect fill="#FEFECE" filter="url(#fexjfrbucklwg)" height="48" id="onDataFunctionType" style="stroke: #A80036; stroke-width: 1.5;" width="162" x="1055" y="473"/><ellipse cx="1070" cy="489" fill="#B4A7E5" rx="11" ry="11" style="stroke: #A80036; stroke-width: 1.0;"/><path d="M1070.9531,485.7813 L1070.9531,492.2969 L1072.6719,492.2969 C1073.125,492.2969 1073.2656,492.3281 1073.4375,492.4531 C1073.6719,492.625 1073.7813,492.875 1073.7813,493.1563 C1073.7813,493.7188 1073.4219,494 1072.6719,494 L1067.5313,494 C1067.125,494 1066.9219,493.9531 1066.7656,493.8281 C1066.5469,493.6719 1066.4063,493.4063 1066.4063,493.1563 C1066.4063,492.8594 1066.5625,492.5781 1066.8125,492.4219 C1066.9688,492.3125 1067.0938,492.2969 1067.5313,492.2969 L1069.25,492.2969 L1069.25,485.7813 L1067.5313,485.7813 C1067.1094,485.7813 1066.9219,485.75 1066.7656,485.6406 C1066.5469,485.4688 1066.4063,485.2188 1066.4063,484.9375 C1066.4063,484.6563 1066.5625,484.3594 1066.8125,484.2031 C1066.9688,484.1094 1067.0938,484.0938 1067.5313,484.0938 L1072.6719,484.0938 C1073.125,484.0938 1073.2656,484.125 1073.4375,484.2344 C1073.6719,484.4063 1073.7813,484.6719 1073.7813,484.9375 C1073.7813,485.2344 1073.6406,485.5156 1073.375,485.6719 C1073.25,485.75 1073.0625,485.7813 1072.6719,485.7813 Z "/><text fill="#000000" font-family="sans-serif" font-size="12" font-style="italic" lengthAdjust="spacingAndGlyphs" textLength="130" x="1084" y="493.1543">onDataFunctionType</text><line style="stroke: #A80036; stroke-width: 1.5;" x1="1056" x2="1216" y1="505" y2="505"/><line style="stroke: #A80036; stroke-width: 1.5;" x1="1056" x2="1216" y1="513" y2="513"/><!--class InputDataEndpoint--><rect fill="#FEFECE" filter="url(#fexjfrbucklwg)" height="124.8281" id="InputDataEndpoint" style="stroke: #A80036; stroke-width: 1.5;" width="246" x="774" y="434.5"/><ellipse cx="833.75" cy="450.5" fill="#ADD1B2" rx="11" ry="11" style="stroke: #A80036; stroke-width: 1.0;"/><path d="M836.0938,446.1719 L836.2656,446.25 C836.4844,445.9375 836.6875,445.8438 836.9844,445.8438 C837.2813,445.8438 837.5625,445.9844 837.7188,446.25 C837.8125,446.4063 837.8281,446.5313 837.8281,446.9688 L837.8281,448.3906 C837.8281,448.8125 837.7969,449 837.6875,449.1563 C837.5156,449.375 837.25,449.5156 836.9844,449.5156 C836.7656,449.5156 836.5313,449.4063 836.3906,449.2656 C836.25,449.1406 836.2188,449.0156 836.1563,448.6094 C836.0625,448.2031 835.8906,447.9844 835.4063,447.7031 C834.9375,447.4531 834.3281,447.2969 833.75,447.2969 C832.0156,447.2969 830.7656,448.6094 830.7656,450.3906 L830.7656,451.4844 C830.7656,453.1875 832.0625,454.2813 834.1094,454.2813 C834.875,454.2813 835.5625,454.1563 835.9844,453.8906 C836.1719,453.7969 836.1719,453.7969 836.625,453.3125 C836.8125,453.125 837.0156,453.0469 837.2344,453.0469 C837.7031,453.0469 838.0938,453.4375 838.0938,453.8906 C838.0938,454.2813 837.7656,454.7344 837.1875,455.1406 C836.4375,455.6875 835.2813,455.9844 834.0625,455.9844 C831.1719,455.9844 829.0625,454.0938 829.0625,451.5156 L829.0625,450.3906 C829.0625,447.6719 831.0625,445.5938 833.6875,445.5938 C834.5625,445.5938 835.1563,445.7344 836.0938,446.1719 Z "/><text fill="#000000" font-family="sans-serif" font-size="12" lengthAdjust="spacingAndGlyphs" textLength="118" x="854.25" y="454.6543">InputDataEndpoint</text><line style="stroke: #A80036; stroke-width: 1.5;" x1="775" x2="1019" y1="466.5" y2="466.5"/><ellipse cx="785" cy="478.4023" fill="none" rx="3" ry="3" style="stroke: #038048; stroke-width: 1.0;"/><text fill="#000000" font-family="sans-serif" font-size="11" lengthAdjust="spacingAndGlyphs" textLength="55" x="794" y="480.7104">id : string</text><ellipse cx="785" cy="491.207" fill="none" rx="3" ry="3" style="stroke: #038048; stroke-width: 1.0;"/><text fill="#000000" font-family="sans-serif" font-size="11" lengthAdjust="spacingAndGlyphs" textLength="77" x="794" y="493.5151">name : string</text><ellipse cx="785" cy="504.0117" fill="none" rx="3" ry="3" style="stroke: #038048; stroke-width: 1.0;"/><text fill="#000000" font-family="sans-serif" font-size="11" lengthAdjust="spacingAndGlyphs" textLength="70" x="794" y="506.3198">path : string</text><ellipse cx="785" cy="516.8164" fill="none" rx="3" ry="3" style="stroke: #038048; stroke-width: 1.0;"/><text fill="#000000" font-family="sans-serif" font-size="11" lengthAdjust="spacingAndGlyphs" textLength="165" x="794" y="519.1245">currentValue : number|string</text><ellipse cx="785" cy="529.6211" fill="none" rx="3" ry="3" style="stroke: #038048; stroke-width: 1.0;"/><text fill="#000000" font-family="sans-serif" font-size="11" lengthAdjust="spacingAndGlyphs" textLength="66" x="794" y="531.9292">unit : string</text><ellipse cx="785" cy="542.4258" fill="none" rx="3" ry="3" style="stroke: #038048; stroke-width: 1.0;"/><text fill="#000000" font-family="sans-serif" font-size="11" lengthAdjust="spacingAndGlyphs" textLength="220" x="794" y="544.7339">dataType : InputDataEndpointDataType</text><line style="stroke: #A80036; stroke-width: 1.5;" x1="775" x2="1019" y1="551.3281" y2="551.3281"/><!--class InputDataDevice--><rect fill="#FEFECE" filter="url(#fexjfrbucklwg)" height="112.0234" id="InputDataDevice" style="stroke: #A80036; stroke-width: 1.5;" width="439" x="299.5" y="441"/><ellipse cx="463.25" cy="457" fill="#ADD1B2" rx="11" ry="11" style="stroke: #A80036; stroke-width: 1.0;"/><path d="M465.5938,452.6719 L465.7656,452.75 C465.9844,452.4375 466.1875,452.3438 466.4844,452.3438 C466.7813,452.3438 467.0625,452.4844 467.2188,452.75 C467.3125,452.9063 467.3281,453.0313 467.3281,453.4688 L467.3281,454.8906 C467.3281,455.3125 467.2969,455.5 467.1875,455.6563 C467.0156,455.875 466.75,456.0156 466.4844,456.0156 C466.2656,456.0156 466.0313,455.9063 465.8906,455.7656 C465.75,455.6406 465.7188,455.5156 465.6563,455.1094 C465.5625,454.7031 465.3906,454.4844 464.9063,454.2031 C464.4375,453.9531 463.8281,453.7969 463.25,453.7969 C461.5156,453.7969 460.2656,455.1094 460.2656,456.8906 L460.2656,457.9844 C460.2656,459.6875 461.5625,460.7813 463.6094,460.7813 C464.375,460.7813 465.0625,460.6563 465.4844,460.3906 C465.6719,460.2969 465.6719,460.2969 466.125,459.8125 C466.3125,459.625 466.5156,459.5469 466.7344,459.5469 C467.2031,459.5469 467.5938,459.9375 467.5938,460.3906 C467.5938,460.7813 467.2656,461.2344 466.6875,461.6406 C465.9375,462.1875 464.7813,462.4844 463.5625,462.4844 C460.6719,462.4844 458.5625,460.5938 458.5625,458.0156 L458.5625,456.8906 C458.5625,454.1719 460.5625,452.0938 463.1875,452.0938 C464.0625,452.0938 464.6563,452.2344 465.5938,452.6719 Z "/><text fill="#000000" font-family="sans-serif" font-size="12" lengthAdjust="spacingAndGlyphs" textLength="103" x="483.75" y="461.1543">InputDataDevice</text><line style="stroke: #A80036; stroke-width: 1.5;" x1="300.5" x2="737.5" y1="473" y2="473"/><ellipse cx="310.5" cy="484.9023" fill="none" rx="3" ry="3" style="stroke: #038048; stroke-width: 1.0;"/><text fill="#000000" font-family="sans-serif" font-size="11" lengthAdjust="spacingAndGlyphs" textLength="55" x="319.5" y="487.2104">id : string</text><ellipse cx="310.5" cy="497.707" fill="none" rx="3" ry="3" style="stroke: #038048; stroke-width: 1.0;"/><text fill="#000000" font-family="sans-serif" font-size="11" lengthAdjust="spacingAndGlyphs" textLength="77" x="319.5" y="500.0151">name : string</text><ellipse cx="310.5" cy="510.5117" fill="none" rx="3" ry="3" style="stroke: #038048; stroke-width: 1.0;"/><text fill="#000000" font-family="sans-serif" font-size="11" lengthAdjust="spacingAndGlyphs" textLength="69" x="319.5" y="512.8198">type : string</text><ellipse cx="310.5" cy="523.3164" fill="none" rx="3" ry="3" style="stroke: #038048; stroke-width: 1.0;"/><text fill="#000000" font-family="sans-serif" font-size="11" lengthAdjust="spacingAndGlyphs" textLength="70" x="319.5" y="525.6245">path : string</text><line style="stroke: #A80036; stroke-width: 1.5;" x1="300.5" x2="737.5" y1="532.2188" y2="532.2188"/><ellipse cx="310.5" cy="544.1211" fill="#84BE84" rx="3" ry="3" style="stroke: #038048; stroke-width: 1.0;"/><text fill="#000000" font-family="sans-serif" font-size="11" lengthAdjust="spacingAndGlyphs" textLength="413" x="319.5" y="546.4292">children : (InputDataEndpoint|InputDataEndpointGroup|InputDataDevice)[]</text><!--class InputDataEndpointGroup--><rect fill="#FEFECE" filter="url(#fexjfrbucklwg)" height="112.0234" id="InputDataEndpointGroup" style="stroke: #A80036; stroke-width: 1.5;" width="202" x="62" y="441"/><ellipse cx="83.3" cy="457" fill="#ADD1B2" rx="11" ry="11" style="stroke: #A80036; stroke-width: 1.0;"/><path d="M85.6438,452.6719 L85.8156,452.75 C86.0344,452.4375 86.2375,452.3438 86.5344,452.3438 C86.8313,452.3438 87.1125,452.4844 87.2688,452.75 C87.3625,452.9063 87.3781,453.0313 87.3781,453.4688 L87.3781,454.8906 C87.3781,455.3125 87.3469,455.5 87.2375,455.6563 C87.0656,455.875 86.8,456.0156 86.5344,456.0156 C86.3156,456.0156 86.0813,455.9063 85.9406,455.7656 C85.8,455.6406 85.7688,455.5156 85.7063,455.1094 C85.6125,454.7031 85.4406,454.4844 84.9563,454.2031 C84.4875,453.9531 83.8781,453.7969 83.3,453.7969 C81.5656,453.7969 80.3156,455.1094 80.3156,456.8906 L80.3156,457.9844 C80.3156,459.6875 81.6125,460.7813 83.6594,460.7813 C84.425,460.7813 85.1125,460.6563 85.5344,460.3906 C85.7219,460.2969 85.7219,460.2969 86.175,459.8125 C86.3625,459.625 86.5656,459.5469 86.7844,459.5469 C87.2531,459.5469 87.6438,459.9375 87.6438,460.3906 C87.6438,460.7813 87.3156,461.2344 86.7375,461.6406 C85.9875,462.1875 84.8313,462.4844 83.6125,462.4844 C80.7219,462.4844 78.6125,460.5938 78.6125,458.0156 L78.6125,456.8906 C78.6125,454.1719 80.6125,452.0938 83.2375,452.0938 C84.1125,452.0938 84.7063,452.2344 85.6438,452.6719 Z "/><text fill="#000000" font-family="sans-serif" font-size="12" lengthAdjust="spacingAndGlyphs" textLength="156" x="98.7" y="461.1543">InputDataEndpointGroup</text><line style="stroke: #A80036; stroke-width: 1.5;" x1="63" x2="263" y1="473" y2="473"/><ellipse cx="73" cy="484.9023" fill="none" rx="3" ry="3" style="stroke: #038048; stroke-width: 1.0;"/><text fill="#000000" font-family="sans-serif" font-size="11" lengthAdjust="spacingAndGlyphs" textLength="55" x="82" y="487.2104">id : string</text><ellipse cx="73" cy="497.707" fill="none" rx="3" ry="3" style="stroke: #038048; stroke-width: 1.0;"/><text fill="#000000" font-family="sans-serif" font-size="11" lengthAdjust="spacingAndGlyphs" textLength="77" x="82" y="500.0151">name : string</text><ellipse cx="73" cy="510.5117" fill="none" rx="3" ry="3" style="stroke: #038048; stroke-width: 1.0;"/><text fill="#000000" font-family="sans-serif" font-size="11" lengthAdjust="spacingAndGlyphs" textLength="69" x="82" y="512.8198">type : string</text><ellipse cx="73" cy="523.3164" fill="none" rx="3" ry="3" style="stroke: #038048; stroke-width: 1.0;"/><text fill="#000000" font-family="sans-serif" font-size="11" lengthAdjust="spacingAndGlyphs" textLength="70" x="82" y="525.6245">path : string</text><line style="stroke: #A80036; stroke-width: 1.5;" x1="63" x2="263" y1="532.2188" y2="532.2188"/><ellipse cx="73" cy="544.1211" fill="#84BE84" rx="3" ry="3" style="stroke: #038048; stroke-width: 1.0;"/><text fill="#000000" font-family="sans-serif" font-size="11" lengthAdjust="spacingAndGlyphs" textLength="176" x="82" y="546.4292">children : (InputDataEndpoint)[]</text><!--class InputDataEndpointDataType--><rect fill="#FEFECE" filter="url(#fexjfrbucklwg)" height="48" id="InputDataEndpointDataType" style="stroke: #A80036; stroke-width: 1.5;" width="209" x="792.5" y="641"/><ellipse cx="807.5" cy="657" fill="#EB937F" rx="11" ry="11" style="stroke: #A80036; stroke-width: 1.0;"/><path d="M805.7969,657.875 L805.7969,660.2969 L810.1563,660.2969 L810.1563,659.4219 C810.1563,658.9375 810.1875,658.7969 810.2969,658.6406 C810.4688,658.3906 810.7344,658.2813 811,658.2813 C811.2813,658.2813 811.5625,658.4375 811.7344,658.6875 C811.8125,658.8438 811.8438,658.9844 811.8438,659.4219 L811.8438,662 L803.8438,662 C803.4531,662 803.2188,661.9531 803.0781,661.8281 C802.8594,661.6719 802.7188,661.4219 802.7188,661.1563 C802.7188,660.8594 802.875,660.5938 803.125,660.4219 C803.2813,660.3125 803.4375,660.2969 803.8438,660.2969 L804.0938,660.2969 L804.0938,653.7813 L803.8438,653.7813 C803.4219,653.7813 803.2344,653.75 803.0781,653.6406 C802.8594,653.4688 802.7188,653.2188 802.7188,652.9375 C802.7188,652.6563 802.875,652.3594 803.125,652.2031 C803.2813,652.1094 803.4063,652.0938 803.8438,652.0938 L811.4688,652.0938 L811.4688,654.6406 C811.4688,655.1094 811.4375,655.25 811.3281,655.4219 C811.1563,655.6406 810.8906,655.7813 810.625,655.7813 C810.3438,655.7813 810.0625,655.625 809.8906,655.375 C809.8125,655.2188 809.7813,655.0469 809.7813,654.6406 L809.7813,653.7813 L805.7969,653.7813 L805.7969,656.1875 L807.25,656.1875 L807.25,656.0625 C807.25,655.6094 807.2813,655.4531 807.3906,655.2813 C807.5625,655.0625 807.8281,654.9219 808.0781,654.9219 C808.5313,654.9219 808.8438,655.2344 808.9063,655.7031 C808.9219,655.8594 808.9219,655.9063 808.9219,656.0625 L808.9219,657.9844 C808.9219,658.4375 808.8906,658.5938 808.7656,658.75 C808.6094,658.9688 808.3438,659.1094 808.0938,659.1094 C807.7969,659.1094 807.5156,658.9531 807.3594,658.7031 C807.2813,658.5469 807.25,658.3906 807.25,657.9844 L807.25,657.875 Z "/><text fill="#000000" font-family="sans-serif" font-size="12" lengthAdjust="spacingAndGlyphs" textLength="177" x="821.5" y="661.1543">InputDataEndpointDataType</text><line style="stroke: #A80036; stroke-width: 1.5;" x1="793.5" x2="1000.5" y1="673" y2="673"/><line style="stroke: #A80036; stroke-width: 1.5;" x1="793.5" x2="1000.5" y1="681" y2="681"/><!--class SpinalBmsNetwork--><rect fill="#FEFECE" filter="url(#fexjfrbucklwg)" height="99.2188" id="SpinalBmsNetwork" style="stroke: #A80036; stroke-width: 1.5;" width="159" x="1866.5" y="447.5"/><ellipse cx="1886.9" cy="463.5" fill="#ADD1B2" rx="11" ry="11" style="stroke: #A80036; stroke-width: 1.0;"/><path d="M1889.2438,459.1719 L1889.4156,459.25 C1889.6344,458.9375 1889.8375,458.8438 1890.1344,458.8438 C1890.4313,458.8438 1890.7125,458.9844 1890.8688,459.25 C1890.9625,459.4063 1890.9781,459.5313 1890.9781,459.9688 L1890.9781,461.3906 C1890.9781,461.8125 1890.9469,462 1890.8375,462.1563 C1890.6656,462.375 1890.4,462.5156 1890.1344,462.5156 C1889.9156,462.5156 1889.6813,462.4063 1889.5406,462.2656 C1889.4,462.1406 1889.3688,462.0156 1889.3063,461.6094 C1889.2125,461.2031 1889.0406,460.9844 1888.5563,460.7031 C1888.0875,460.4531 1887.4781,460.2969 1886.9,460.2969 C1885.1656,460.2969 1883.9156,461.6094 1883.9156,463.3906 L1883.9156,464.4844 C1883.9156,466.1875 1885.2125,467.2813 1887.2594,467.2813 C1888.025,467.2813 1888.7125,467.1563 1889.1344,466.8906 C1889.3219,466.7969 1889.3219,466.7969 1889.775,466.3125 C1889.9625,466.125 1890.1656,466.0469 1890.3844,466.0469 C1890.8531,466.0469 1891.2438,466.4375 1891.2438,466.8906 C1891.2438,467.2813 1890.9156,467.7344 1890.3375,468.1406 C1889.5875,468.6875 1888.4313,468.9844 1887.2125,468.9844 C1884.3219,468.9844 1882.2125,467.0938 1882.2125,464.5156 L1882.2125,463.3906 C1882.2125,460.6719 1884.2125,458.5938 1886.8375,458.5938 C1887.7125,458.5938 1888.3063,458.7344 1889.2438,459.1719 Z "/><text fill="#000000" font-family="sans-serif" font-size="12" lengthAdjust="spacingAndGlyphs" textLength="115" x="1902.1" y="467.6543">SpinalBmsNetwork</text><line style="stroke: #A80036; stroke-width: 1.5;" x1="1867.5" x2="2024.5" y1="479.5" y2="479.5"/><ellipse cx="1877.5" cy="491.4023" fill="none" rx="3" ry="3" style="stroke: #038048; stroke-width: 1.0;"/><text fill="#000000" font-family="sans-serif" font-size="11" lengthAdjust="spacingAndGlyphs" textLength="121" x="1886.5" y="493.7104">relationName : string</text><ellipse cx="1877.5" cy="504.207" fill="none" rx="3" ry="3" style="stroke: #038048; stroke-width: 1.0;"/><text fill="#000000" font-family="sans-serif" font-size="11" lengthAdjust="spacingAndGlyphs" textLength="133" x="1886.5" y="506.5151">nodeTypeName : string</text><ellipse cx="1877.5" cy="517.0117" fill="none" rx="3" ry="3" style="stroke: #038048; stroke-width: 1.0;"/><text fill="#000000" font-family="sans-serif" font-size="11" lengthAdjust="spacingAndGlyphs" textLength="77" x="1886.5" y="519.3198">id : spinal.Str</text><ellipse cx="1877.5" cy="529.8164" fill="none" rx="3" ry="3" style="stroke: #038048; stroke-width: 1.0;"/><text fill="#000000" font-family="sans-serif" font-size="11" lengthAdjust="spacingAndGlyphs" textLength="99" x="1886.5" y="532.1245">name : spinal.Str</text><line style="stroke: #A80036; stroke-width: 1.5;" x1="1867.5" x2="2024.5" y1="538.7188" y2="538.7188"/><!--class SpinalBmsDevice--><rect fill="#FEFECE" filter="url(#fexjfrbucklwg)" height="124.8281" id="SpinalBmsDevice" style="stroke: #A80036; stroke-width: 1.5;" width="159" x="1672.5" y="434.5"/><ellipse cx="1697.4" cy="450.5" fill="#ADD1B2" rx="11" ry="11" style="stroke: #A80036; stroke-width: 1.0;"/><path d="M1699.7438,446.1719 L1699.9156,446.25 C1700.1344,445.9375 1700.3375,445.8438 1700.6344,445.8438 C1700.9313,445.8438 1701.2125,445.9844 1701.3688,446.25 C1701.4625,446.4063 1701.4781,446.5313 1701.4781,446.9688 L1701.4781,448.3906 C1701.4781,448.8125 1701.4469,449 1701.3375,449.1563 C1701.1656,449.375 1700.9,449.5156 1700.6344,449.5156 C1700.4156,449.5156 1700.1813,449.4063 1700.0406,449.2656 C1699.9,449.1406 1699.8688,449.0156 1699.8063,448.6094 C1699.7125,448.2031 1699.5406,447.9844 1699.0563,447.7031 C1698.5875,447.4531 1697.9781,447.2969 1697.4,447.2969 C1695.6656,447.2969 1694.4156,448.6094 1694.4156,450.3906 L1694.4156,451.4844 C1694.4156,453.1875 1695.7125,454.2813 1697.7594,454.2813 C1698.525,454.2813 1699.2125,454.1563 1699.6344,453.8906 C1699.8219,453.7969 1699.8219,453.7969 1700.275,453.3125 C1700.4625,453.125 1700.6656,453.0469 1700.8844,453.0469 C1701.3531,453.0469 1701.7438,453.4375 1701.7438,453.8906 C1701.7438,454.2813 1701.4156,454.7344 1700.8375,455.1406 C1700.0875,455.6875 1698.9313,455.9844 1697.7125,455.9844 C1694.8219,455.9844 1692.7125,454.0938 1692.7125,451.5156 L1692.7125,450.3906 C1692.7125,447.6719 1694.7125,445.5938 1697.3375,445.5938 C1698.2125,445.5938 1698.8063,445.7344 1699.7438,446.1719 Z "/><text fill="#000000" font-family="sans-serif" font-size="12" lengthAdjust="spacingAndGlyphs" textLength="105" x="1713.6" y="454.6543">SpinalBmsDevice</text><line style="stroke: #A80036; stroke-width: 1.5;" x1="1673.5" x2="1830.5" y1="466.5" y2="466.5"/><ellipse cx="1683.5" cy="478.4023" fill="none" rx="3" ry="3" style="stroke: #038048; stroke-width: 1.0;"/><text fill="#000000" font-family="sans-serif" font-size="11" lengthAdjust="spacingAndGlyphs" textLength="121" x="1692.5" y="480.7104">relationName : string</text><ellipse cx="1683.5" cy="491.207" fill="none" rx="3" ry="3" style="stroke: #038048; stroke-width: 1.0;"/><text fill="#000000" font-family="sans-serif" font-size="11" lengthAdjust="spacingAndGlyphs" textLength="133" x="1692.5" y="493.5151">nodeTypeName : string</text><ellipse cx="1683.5" cy="504.0117" fill="none" rx="3" ry="3" style="stroke: #038048; stroke-width: 1.0;"/><text fill="#000000" font-family="sans-serif" font-size="11" lengthAdjust="spacingAndGlyphs" textLength="77" x="1692.5" y="506.3198">id : spinal.Str</text><ellipse cx="1683.5" cy="516.8164" fill="none" rx="3" ry="3" style="stroke: #038048; stroke-width: 1.0;"/><text fill="#000000" font-family="sans-serif" font-size="11" lengthAdjust="spacingAndGlyphs" textLength="99" x="1692.5" y="519.1245">name : spinal.Str</text><ellipse cx="1683.5" cy="529.6211" fill="none" rx="3" ry="3" style="stroke: #038048; stroke-width: 1.0;"/><text fill="#000000" font-family="sans-serif" font-size="11" lengthAdjust="spacingAndGlyphs" textLength="91" x="1692.5" y="531.9292">type : spinal.Str</text><ellipse cx="1683.5" cy="542.4258" fill="none" rx="3" ry="3" style="stroke: #038048; stroke-width: 1.0;"/><text fill="#000000" font-family="sans-serif" font-size="11" lengthAdjust="spacingAndGlyphs" textLength="92" x="1692.5" y="544.7339">path : spinal.Str</text><line style="stroke: #A80036; stroke-width: 1.5;" x1="1673.5" x2="1830.5" y1="551.3281" y2="551.3281"/><!--class SpinalBmsEndpointGroup--><rect fill="#FEFECE" filter="url(#fexjfrbucklwg)" height="124.8281" id="SpinalBmsEndpointGroup" style="stroke: #A80036; stroke-width: 1.5;" width="190" x="2061" y="434.5"/><ellipse cx="2076" cy="450.5" fill="#ADD1B2" rx="11" ry="11" style="stroke: #A80036; stroke-width: 1.0;"/><path d="M2078.3438,446.1719 L2078.5156,446.25 C2078.7344,445.9375 2078.9375,445.8438 2079.2344,445.8438 C2079.5313,445.8438 2079.8125,445.9844 2079.9688,446.25 C2080.0625,446.4063 2080.0781,446.5313 2080.0781,446.9688 L2080.0781,448.3906 C2080.0781,448.8125 2080.0469,449 2079.9375,449.1563 C2079.7656,449.375 2079.5,449.5156 2079.2344,449.5156 C2079.0156,449.5156 2078.7813,449.4063 2078.6406,449.2656 C2078.5,449.1406 2078.4688,449.0156 2078.4063,448.6094 C2078.3125,448.2031 2078.1406,447.9844 2077.6563,447.7031 C2077.1875,447.4531 2076.5781,447.2969 2076,447.2969 C2074.2656,447.2969 2073.0156,448.6094 2073.0156,450.3906 L2073.0156,451.4844 C2073.0156,453.1875 2074.3125,454.2813 2076.3594,454.2813 C2077.125,454.2813 2077.8125,454.1563 2078.2344,453.8906 C2078.4219,453.7969 2078.4219,453.7969 2078.875,453.3125 C2079.0625,453.125 2079.2656,453.0469 2079.4844,453.0469 C2079.9531,453.0469 2080.3438,453.4375 2080.3438,453.8906 C2080.3438,454.2813 2080.0156,454.7344 2079.4375,455.1406 C2078.6875,455.6875 2077.5313,455.9844 2076.3125,455.9844 C2073.4219,455.9844 2071.3125,454.0938 2071.3125,451.5156 L2071.3125,450.3906 C2071.3125,447.6719 2073.3125,445.5938 2075.9375,445.5938 C2076.8125,445.5938 2077.4063,445.7344 2078.3438,446.1719 Z "/><text fill="#000000" font-family="sans-serif" font-size="12" lengthAdjust="spacingAndGlyphs" textLength="158" x="2090" y="454.6543">SpinalBmsEndpointGroup</text><line style="stroke: #A80036; stroke-width: 1.5;" x1="2062" x2="2250" y1="466.5" y2="466.5"/><ellipse cx="2072" cy="478.4023" fill="none" rx="3" ry="3" style="stroke: #038048; stroke-width: 1.0;"/><text fill="#000000" font-family="sans-serif" font-size="11" lengthAdjust="spacingAndGlyphs" textLength="121" x="2081" y="480.7104">relationName : string</text><ellipse cx="2072" cy="491.207" fill="none" rx="3" ry="3" style="stroke: #038048; stroke-width: 1.0;"/><text fill="#000000" font-family="sans-serif" font-size="11" lengthAdjust="spacingAndGlyphs" textLength="133" x="2081" y="493.5151">nodeTypeName : string</text><ellipse cx="2072" cy="504.0117" fill="none" rx="3" ry="3" style="stroke: #038048; stroke-width: 1.0;"/><text fill="#000000" font-family="sans-serif" font-size="11" lengthAdjust="spacingAndGlyphs" textLength="77" x="2081" y="506.3198">id : spinal.Str</text><ellipse cx="2072" cy="516.8164" fill="none" rx="3" ry="3" style="stroke: #038048; stroke-width: 1.0;"/><text fill="#000000" font-family="sans-serif" font-size="11" lengthAdjust="spacingAndGlyphs" textLength="99" x="2081" y="519.1245">name : spinal.Str</text><ellipse cx="2072" cy="529.6211" fill="none" rx="3" ry="3" style="stroke: #038048; stroke-width: 1.0;"/><text fill="#000000" font-family="sans-serif" font-size="11" lengthAdjust="spacingAndGlyphs" textLength="91" x="2081" y="531.9292">type : spinal.Str</text><ellipse cx="2072" cy="542.4258" fill="none" rx="3" ry="3" style="stroke: #038048; stroke-width: 1.0;"/><text fill="#000000" font-family="sans-serif" font-size="11" lengthAdjust="spacingAndGlyphs" textLength="92" x="2081" y="544.7339">path : spinal.Str</text><line style="stroke: #A80036; stroke-width: 1.5;" x1="2062" x2="2250" y1="551.3281" y2="551.3281"/><!--class SpinalBmsEndpoint--><rect fill="#FEFECE" filter="url(#fexjfrbucklwg)" height="137.6328" id="SpinalBmsEndpoint" style="stroke: #A80036; stroke-width: 1.5;" width="232" x="1405" y="428"/><ellipse cx="1456.75" cy="444" fill="#ADD1B2" rx="11" ry="11" style="stroke: #A80036; stroke-width: 1.0;"/><path d="M1459.0938,439.6719 L1459.2656,439.75 C1459.4844,439.4375 1459.6875,439.3438 1459.9844,439.3438 C1460.2813,439.3438 1460.5625,439.4844 1460.7188,439.75 C1460.8125,439.9063 1460.8281,440.0313 1460.8281,440.4688 L1460.8281,441.8906 C1460.8281,442.3125 1460.7969,442.5 1460.6875,442.6563 C1460.5156,442.875 1460.25,443.0156 1459.9844,443.0156 C1459.7656,443.0156 1459.5313,442.9063 1459.3906,442.7656 C1459.25,442.6406 1459.2188,442.5156 1459.1563,442.1094 C1459.0625,441.7031 1458.8906,441.4844 1458.4063,441.2031 C1457.9375,440.9531 1457.3281,440.7969 1456.75,440.7969 C1455.0156,440.7969 1453.7656,442.1094 1453.7656,443.8906 L1453.7656,444.9844 C1453.7656,446.6875 1455.0625,447.7813 1457.1094,447.7813 C1457.875,447.7813 1458.5625,447.6563 1458.9844,447.3906 C1459.1719,447.2969 1459.1719,447.2969 1459.625,446.8125 C1459.8125,446.625 1460.0156,446.5469 1460.2344,446.5469 C1460.7031,446.5469 1461.0938,446.9375 1461.0938,447.3906 C1461.0938,447.7813 1460.7656,448.2344 1460.1875,448.6406 C1459.4375,449.1875 1458.2813,449.4844 1457.0625,449.4844 C1454.1719,449.4844 1452.0625,447.5938 1452.0625,445.0156 L1452.0625,443.8906 C1452.0625,441.1719 1454.0625,439.0938 1456.6875,439.0938 C1457.5625,439.0938 1458.1563,439.2344 1459.0938,439.6719 Z "/><text fill="#000000" font-family="sans-serif" font-size="12" lengthAdjust="spacingAndGlyphs" textLength="120" x="1477.25" y="448.1543">SpinalBmsEndpoint</text><line style="stroke: #A80036; stroke-width: 1.5;" x1="1406" x2="1636" y1="460" y2="460"/><ellipse cx="1416" cy="471.9023" fill="none" rx="3" ry="3" style="stroke: #038048; stroke-width: 1.0;"/><text fill="#000000" font-family="sans-serif" font-size="11" lengthAdjust="spacingAndGlyphs" textLength="121" x="1425" y="474.2104">relationName : string</text><ellipse cx="1416" cy="484.707" fill="none" rx="3" ry="3" style="stroke: #038048; stroke-width: 1.0;"/><text fill="#000000" font-family="sans-serif" font-size="11" lengthAdjust="spacingAndGlyphs" textLength="133" x="1425" y="487.0151">nodeTypeName : string</text><ellipse cx="1416" cy="497.5117" fill="none" rx="3" ry="3" style="stroke: #038048; stroke-width: 1.0;"/><text fill="#000000" font-family="sans-serif" font-size="11" lengthAdjust="spacingAndGlyphs" textLength="77" x="1425" y="499.8198">id : spinal.Str</text><ellipse cx="1416" cy="510.3164" fill="none" rx="3" ry="3" style="stroke: #038048; stroke-width: 1.0;"/><text fill="#000000" font-family="sans-serif" font-size="11" lengthAdjust="spacingAndGlyphs" textLength="92" x="1425" y="512.6245">path : spinal.Str</text><ellipse cx="1416" cy="523.1211" fill="none" rx="3" ry="3" style="stroke: #038048; stroke-width: 1.0;"/><text fill="#000000" font-family="sans-serif" font-size="11" lengthAdjust="spacingAndGlyphs" textLength="206" x="1425" y="525.4292">currentValue : spinal.Str | spinal.Val</text><ellipse cx="1416" cy="535.9258" fill="none" rx="3" ry="3" style="stroke: #038048; stroke-width: 1.0;"/><text fill="#000000" font-family="sans-serif" font-size="11" lengthAdjust="spacingAndGlyphs" textLength="88" x="1425" y="538.2339">unit : spinal.Str</text><ellipse cx="1416" cy="548.7305" fill="none" rx="3" ry="3" style="stroke: #038048; stroke-width: 1.0;"/><text fill="#000000" font-family="sans-serif" font-size="11" lengthAdjust="spacingAndGlyphs" textLength="119" x="1425" y="551.0386">dataType : spinal.Str</text><line style="stroke: #A80036; stroke-width: 1.5;" x1="1406" x2="1636" y1="557.6328" y2="557.6328"/><!--class spinal.Str--><rect fill="#FEFECE" filter="url(#fexjfrbucklwg)" height="48" id="spinal.Str" style="stroke: #A80036; stroke-width: 1.5;" width="50" x="1727" y="641"/><ellipse cx="1742" cy="657" fill="#ADD1B2" rx="11" ry="11" style="stroke: #A80036; stroke-width: 1.0;"/><path d="M1744.3438,652.6719 L1744.5156,652.75 C1744.7344,652.4375 1744.9375,652.3438 1745.2344,652.3438 C1745.5313,652.3438 1745.8125,652.4844 1745.9688,652.75 C1746.0625,652.9063 1746.0781,653.0313 1746.0781,653.4688 L1746.0781,654.8906 C1746.0781,655.3125 1746.0469,655.5 1745.9375,655.6563 C1745.7656,655.875 1745.5,656.0156 1745.2344,656.0156 C1745.0156,656.0156 1744.7813,655.9063 1744.6406,655.7656 C1744.5,655.6406 1744.4688,655.5156 1744.4063,655.1094 C1744.3125,654.7031 1744.1406,654.4844 1743.6563,654.2031 C1743.1875,653.9531 1742.5781,653.7969 1742,653.7969 C1740.2656,653.7969 1739.0156,655.1094 1739.0156,656.8906 L1739.0156,657.9844 C1739.0156,659.6875 1740.3125,660.7813 1742.3594,660.7813 C1743.125,660.7813 1743.8125,660.6563 1744.2344,660.3906 C1744.4219,660.2969 1744.4219,660.2969 1744.875,659.8125 C1745.0625,659.625 1745.2656,659.5469 1745.4844,659.5469 C1745.9531,659.5469 1746.3438,659.9375 1746.3438,660.3906 C1746.3438,660.7813 1746.0156,661.2344 1745.4375,661.6406 C1744.6875,662.1875 1743.5313,662.4844 1742.3125,662.4844 C1739.4219,662.4844 1737.3125,660.5938 1737.3125,658.0156 L1737.3125,656.8906 C1737.3125,654.1719 1739.3125,652.0938 1741.9375,652.0938 C1742.8125,652.0938 1743.4063,652.2344 1744.3438,652.6719 Z "/><text fill="#000000" font-family="sans-serif" font-size="12" lengthAdjust="spacingAndGlyphs" textLength="18" x="1756" y="661.1543">Str</text><line style="stroke: #A80036; stroke-width: 1.5;" x1="1728" x2="1776" y1="673" y2="673"/><line style="stroke: #A80036; stroke-width: 1.5;" x1="1728" x2="1776" y1="681" y2="681"/><!--class spinal.Val--><rect fill="#FEFECE" filter="url(#fexjfrbucklwg)" height="48" id="spinal.Val" style="stroke: #A80036; stroke-width: 1.5;" width="51" x="1640.5" y="641"/><ellipse cx="1655.5" cy="657" fill="#ADD1B2" rx="11" ry="11" style="stroke: #A80036; stroke-width: 1.0;"/><path d="M1657.8438,652.6719 L1658.0156,652.75 C1658.2344,652.4375 1658.4375,652.3438 1658.7344,652.3438 C1659.0313,652.3438 1659.3125,652.4844 1659.4688,652.75 C1659.5625,652.9063 1659.5781,653.0313 1659.5781,653.4688 L1659.5781,654.8906 C1659.5781,655.3125 1659.5469,655.5 1659.4375,655.6563 C1659.2656,655.875 1659,656.0156 1658.7344,656.0156 C1658.5156,656.0156 1658.2813,655.9063 1658.1406,655.7656 C1658,655.6406 1657.9688,655.5156 1657.9063,655.1094 C1657.8125,654.7031 1657.6406,654.4844 1657.1563,654.2031 C1656.6875,653.9531 1656.0781,653.7969 1655.5,653.7969 C1653.7656,653.7969 1652.5156,655.1094 1652.5156,656.8906 L1652.5156,657.9844 C1652.5156,659.6875 1653.8125,660.7813 1655.8594,660.7813 C1656.625,660.7813 1657.3125,660.6563 1657.7344,660.3906 C1657.9219,660.2969 1657.9219,660.2969 1658.375,659.8125 C1658.5625,659.625 1658.7656,659.5469 1658.9844,659.5469 C1659.4531,659.5469 1659.8438,659.9375 1659.8438,660.3906 C1659.8438,660.7813 1659.5156,661.2344 1658.9375,661.6406 C1658.1875,662.1875 1657.0313,662.4844 1655.8125,662.4844 C1652.9219,662.4844 1650.8125,660.5938 1650.8125,658.0156 L1650.8125,656.8906 C1650.8125,654.1719 1652.8125,652.0938 1655.4375,652.0938 C1656.3125,652.0938 1656.9063,652.2344 1657.8438,652.6719 Z "/><text fill="#000000" font-family="sans-serif" font-size="12" lengthAdjust="spacingAndGlyphs" textLength="19" x="1669.5" y="661.1543">Val</text><line style="stroke: #A80036; stroke-width: 1.5;" x1="1641.5" x2="1690.5" y1="673" y2="673"/><line style="stroke: #A80036; stroke-width: 1.5;" x1="1641.5" x2="1690.5" y1="681" y2="681"/><!--class spinal.Model--><rect fill="#FEFECE" filter="url(#fexjfrbucklwg)" height="48" id="spinal.Model" style="stroke: #A80036; stroke-width: 1.5;" width="69" x="1812.5" y="641"/><ellipse cx="1827.5" cy="657" fill="#ADD1B2" rx="11" ry="11" style="stroke: #A80036; stroke-width: 1.0;"/><path d="M1829.8438,652.6719 L1830.0156,652.75 C1830.2344,652.4375 1830.4375,652.3438 1830.7344,652.3438 C1831.0313,652.3438 1831.3125,652.4844 1831.4688,652.75 C1831.5625,652.9063 1831.5781,653.0313 1831.5781,653.4688 L1831.5781,654.8906 C1831.5781,655.3125 1831.5469,655.5 1831.4375,655.6563 C1831.2656,655.875 1831,656.0156 1830.7344,656.0156 C1830.5156,656.0156 1830.2813,655.9063 1830.1406,655.7656 C1830,655.6406 1829.9688,655.5156 1829.9063,655.1094 C1829.8125,654.7031 1829.6406,654.4844 1829.1563,654.2031 C1828.6875,653.9531 1828.0781,653.7969 1827.5,653.7969 C1825.7656,653.7969 1824.5156,655.1094 1824.5156,656.8906 L1824.5156,657.9844 C1824.5156,659.6875 1825.8125,660.7813 1827.8594,660.7813 C1828.625,660.7813 1829.3125,660.6563 1829.7344,660.3906 C1829.9219,660.2969 1829.9219,660.2969 1830.375,659.8125 C1830.5625,659.625 1830.7656,659.5469 1830.9844,659.5469 C1831.4531,659.5469 1831.8438,659.9375 1831.8438,660.3906 C1831.8438,660.7813 1831.5156,661.2344 1830.9375,661.6406 C1830.1875,662.1875 1829.0313,662.4844 1827.8125,662.4844 C1824.9219,662.4844 1822.8125,660.5938 1822.8125,658.0156 L1822.8125,656.8906 C1822.8125,654.1719 1824.8125,652.0938 1827.4375,652.0938 C1828.3125,652.0938 1828.9063,652.2344 1829.8438,652.6719 Z "/><text fill="#000000" font-family="sans-serif" font-size="12" lengthAdjust="spacingAndGlyphs" textLength="37" x="1841.5" y="661.1543">Model</text><line style="stroke: #A80036; stroke-width: 1.5;" x1="1813.5" x2="1880.5" y1="673" y2="673"/><line style="stroke: #A80036; stroke-width: 1.5;" x1="1813.5" x2="1880.5" y1="681" y2="681"/><!--class NetworkProcess--><rect fill="#FEFECE" filter="url(#fexjfrbucklwg)" height="150.4375" id="NetworkProcess" style="stroke: #A80036; stroke-width: 1.5;" width="570" x="918" y="8"/><ellipse cx="1148.25" cy="24" fill="#ADD1B2" rx="11" ry="11" style="stroke: #A80036; stroke-width: 1.0;"/><path d="M1150.5938,19.6719 L1150.7656,19.75 C1150.9844,19.4375 1151.1875,19.3438 1151.4844,19.3438 C1151.7813,19.3438 1152.0625,19.4844 1152.2188,19.75 C1152.3125,19.9063 1152.3281,20.0313 1152.3281,20.4688 L1152.3281,21.8906 C1152.3281,22.3125 1152.2969,22.5 1152.1875,22.6563 C1152.0156,22.875 1151.75,23.0156 1151.4844,23.0156 C1151.2656,23.0156 1151.0313,22.9063 1150.8906,22.7656 C1150.75,22.6406 1150.7188,22.5156 1150.6563,22.1094 C1150.5625,21.7031 1150.3906,21.4844 1149.9063,21.2031 C1149.4375,20.9531 1148.8281,20.7969 1148.25,20.7969 C1146.5156,20.7969 1145.2656,22.1094 1145.2656,23.8906 L1145.2656,24.9844 C1145.2656,26.6875 1146.5625,27.7813 1148.6094,27.7813 C1149.375,27.7813 1150.0625,27.6563 1150.4844,27.3906 C1150.6719,27.2969 1150.6719,27.2969 1151.125,26.8125 C1151.3125,26.625 1151.5156,26.5469 1151.7344,26.5469 C1152.2031,26.5469 1152.5938,26.9375 1152.5938,27.3906 C1152.5938,27.7813 1152.2656,28.2344 1151.6875,28.6406 C1150.9375,29.1875 1149.7813,29.4844 1148.5625,29.4844 C1145.6719,29.4844 1143.5625,27.5938 1143.5625,25.0156 L1143.5625,23.8906 C1143.5625,21.1719 1145.5625,19.0938 1148.1875,19.0938 C1149.0625,19.0938 1149.6563,19.2344 1150.5938,19.6719 Z "/><text fill="#000000" font-family="sans-serif" font-size="12" lengthAdjust="spacingAndGlyphs" textLength="101" x="1168.75" y="28.1543">NetworkProcess</text><line style="stroke: #A80036; stroke-width: 1.5;" x1="919" x2="1487" y1="40" y2="40"/><rect fill="none" height="6" style="stroke: #C82930; stroke-width: 1.0;" width="6" x="926" y="48.9023"/><text fill="#000000" font-family="sans-serif" font-size="11" lengthAdjust="spacingAndGlyphs" textLength="120" x="938" y="54.2104">inputData : InputData</text><rect fill="none" height="6" style="stroke: #C82930; stroke-width: 1.0;" width="6" x="926" y="61.707"/><text fill="#000000" font-family="sans-serif" font-size="11" lengthAdjust="spacingAndGlyphs" textLength="158" x="938" y="67.0151">nwService : NetworkService</text><rect fill="none" height="6" style="stroke: #C82930; stroke-width: 1.0;" width="6" x="926" y="74.5117"/><text fill="#000000" font-family="sans-serif" font-size="11" lengthAdjust="spacingAndGlyphs" textLength="96" x="938" y="79.8198">contextId : string</text><rect fill="none" height="6" style="stroke: #C82930; stroke-width: 1.0;" width="6" x="926" y="87.3164"/><text fill="#000000" font-family="sans-serif" font-size="11" lengthAdjust="spacingAndGlyphs" textLength="100" x="938" y="92.6245">networkId : string</text><line style="stroke: #A80036; stroke-width: 1.5;" x1="919" x2="1487" y1="99.2188" y2="99.2188"/><ellipse cx="929" cy="111.1211" fill="#84BE84" rx="3" ry="3" style="stroke: #038048; stroke-width: 1.0;"/><text fill="#000000" font-family="sans-serif" font-size="11" lengthAdjust="spacingAndGlyphs" textLength="410" x="938" y="113.4292">init(forgeFile: ForgeFileItem, configOrgan: ConfigOrgan): Promise&lt;void&gt;</text><ellipse cx="929" cy="123.9258" fill="#84BE84" rx="3" ry="3" style="stroke: #038048; stroke-width: 1.0;"/><text fill="#000000" font-family="sans-serif" font-size="11" lengthAdjust="spacingAndGlyphs" textLength="285" x="938" y="126.2339">updateData(obj: InputDataDevice): Promise&lt;void&gt;</text><rect fill="#F24D5C" height="6" style="stroke: #C82930; stroke-width: 1.0;" width="6" x="926" y="133.7305"/><text fill="#000000" font-family="sans-serif" font-size="11" lengthAdjust="spacingAndGlyphs" textLength="544" x="938" y="139.0386">updateModel(node: any, reference: InputDataDevice | InputDataEndpointGroup): Promise&lt;void&gt;</text><rect fill="#F24D5C" height="6" style="stroke: #C82930; stroke-width: 1.0;" width="6" x="926" y="146.5352"/><text fill="#000000" font-family="sans-serif" font-size="11" lengthAdjust="spacingAndGlyphs" textLength="422" x="938" y="151.8433">updateEndpoint(node: any, reference: InputDataEndpoint): Promise&lt;void&gt;</text><!--class ConfigOrgan--><rect fill="#FEFECE" filter="url(#fexjfrbucklwg)" height="86.4141" id="ConfigOrgan" style="stroke: #A80036; stroke-width: 1.5;" width="145" x="1523.5" y="40"/><ellipse cx="1555.15" cy="56" fill="#B4A7E5" rx="11" ry="11" style="stroke: #A80036; stroke-width: 1.0;"/><path d="M1556.1031,52.7813 L1556.1031,59.2969 L1557.8219,59.2969 C1558.275,59.2969 1558.4156,59.3281 1558.5875,59.4531 C1558.8219,59.625 1558.9313,59.875 1558.9313,60.1563 C1558.9313,60.7188 1558.5719,61 1557.8219,61 L1552.6813,61 C1552.275,61 1552.0719,60.9531 1551.9156,60.8281 C1551.6969,60.6719 1551.5563,60.4063 1551.5563,60.1563 C1551.5563,59.8594 1551.7125,59.5781 1551.9625,59.4219 C1552.1188,59.3125 1552.2438,59.2969 1552.6813,59.2969 L1554.4,59.2969 L1554.4,52.7813 L1552.6813,52.7813 C1552.2594,52.7813 1552.0719,52.75 1551.9156,52.6406 C1551.6969,52.4688 1551.5563,52.2188 1551.5563,51.9375 C1551.5563,51.6563 1551.7125,51.3594 1551.9625,51.2031 C1552.1188,51.1094 1552.2438,51.0938 1552.6813,51.0938 L1557.8219,51.0938 C1558.275,51.0938 1558.4156,51.125 1558.5875,51.2344 C1558.8219,51.4063 1558.9313,51.6719 1558.9313,51.9375 C1558.9313,52.2344 1558.7906,52.5156 1558.525,52.6719 C1558.4,52.75 1558.2125,52.7813 1557.8219,52.7813 Z "/><text fill="#000000" font-family="sans-serif" font-size="12" font-style="italic" lengthAdjust="spacingAndGlyphs" textLength="76" x="1572.85" y="60.1543">ConfigOrgan</text><line style="stroke: #A80036; stroke-width: 1.5;" x1="1524.5" x2="1667.5" y1="72" y2="72"/><ellipse cx="1534.5" cy="83.9023" fill="none" rx="3" ry="3" style="stroke: #038048; stroke-width: 1.0;"/><text fill="#000000" font-family="sans-serif" font-size="11" lengthAdjust="spacingAndGlyphs" textLength="119" x="1543.5" y="86.2104">contextName : string</text><ellipse cx="1534.5" cy="96.707" fill="none" rx="3" ry="3" style="stroke: #038048; stroke-width: 1.0;"/><text fill="#000000" font-family="sans-serif" font-size="11" lengthAdjust="spacingAndGlyphs" textLength="113" x="1543.5" y="99.0151">contextType : string</text><ellipse cx="1534.5" cy="109.5117" fill="none" rx="3" ry="3" style="stroke: #038048; stroke-width: 1.0;"/><text fill="#000000" font-family="sans-serif" font-size="11" lengthAdjust="spacingAndGlyphs" textLength="117" x="1543.5" y="111.8198">networkType : string</text><line style="stroke: #A80036; stroke-width: 1.5;" x1="1524.5" x2="1667.5" y1="118.4141" y2="118.4141"/><!--class NetworkService--><rect fill="#FEFECE" filter="url(#fexjfrbucklwg)" height="137.6328" id="NetworkService" style="stroke: #A80036; stroke-width: 1.5;" width="614" x="1347" y="224"/><ellipse cx="1601.75" cy="240" fill="#ADD1B2" rx="11" ry="11" style="stroke: #A80036; stroke-width: 1.0;"/><path d="M1604.0938,235.6719 L1604.2656,235.75 C1604.4844,235.4375 1604.6875,235.3438 1604.9844,235.3438 C1605.2813,235.3438 1605.5625,235.4844 1605.7188,235.75 C1605.8125,235.9063 1605.8281,236.0313 1605.8281,236.4688 L1605.8281,237.8906 C1605.8281,238.3125 1605.7969,238.5 1605.6875,238.6563 C1605.5156,238.875 1605.25,239.0156 1604.9844,239.0156 C1604.7656,239.0156 1604.5313,238.9063 1604.3906,238.7656 C1604.25,238.6406 1604.2188,238.5156 1604.1563,238.1094 C1604.0625,237.7031 1603.8906,237.4844 1603.4063,237.2031 C1602.9375,236.9531 1602.3281,236.7969 1601.75,236.7969 C1600.0156,236.7969 1598.7656,238.1094 1598.7656,239.8906 L1598.7656,240.9844 C1598.7656,242.6875 1600.0625,243.7813 1602.1094,243.7813 C1602.875,243.7813 1603.5625,243.6563 1603.9844,243.3906 C1604.1719,243.2969 1604.1719,243.2969 1604.625,242.8125 C1604.8125,242.625 1605.0156,242.5469 1605.2344,242.5469 C1605.7031,242.5469 1606.0938,242.9375 1606.0938,243.3906 C1606.0938,243.7813 1605.7656,244.2344 1605.1875,244.6406 C1604.4375,245.1875 1603.2813,245.4844 1602.0625,245.4844 C1599.1719,245.4844 1597.0625,243.5938 1597.0625,241.0156 L1597.0625,239.8906 C1597.0625,237.1719 1599.0625,235.0938 1601.6875,235.0938 C1602.5625,235.0938 1603.1563,235.2344 1604.0938,235.6719 Z "/><text fill="#000000" font-family="sans-serif" font-size="12" lengthAdjust="spacingAndGlyphs" textLength="96" x="1622.25" y="244.1543">NetworkService</text><line style="stroke: #A80036; stroke-width: 1.5;" x1="1348" x2="1960" y1="256" y2="256"/><rect fill="none" height="6" style="stroke: #C82930; stroke-width: 1.0;" width="6" x="1355" y="264.9023"/><text fill="#000000" font-family="sans-serif" font-size="11" lengthAdjust="spacingAndGlyphs" textLength="131" x="1367" y="270.2104">context : SpinalContext</text><rect fill="none" height="6" style="stroke: #C82930; stroke-width: 1.0;" width="6" x="1355" y="277.707"/><text fill="#000000" font-family="sans-serif" font-size="11" lengthAdjust="spacingAndGlyphs" textLength="96" x="1367" y="283.0151">contextId : string</text><line style="stroke: #A80036; stroke-width: 1.5;" x1="1348" x2="1960" y1="289.6094" y2="289.6094"/><ellipse cx="1358" cy="301.5117" fill="#84BE84" rx="3" ry="3" style="stroke: #038048; stroke-width: 1.0;"/><text fill="#000000" font-family="sans-serif" font-size="11" lengthAdjust="spacingAndGlyphs" textLength="588" x="1367" y="303.8198">init(forgeFile: spinal.Model, configOrgan: ConfigOrgan): Promise&lt;{contextId:string, networkId: string}&gt;</text><ellipse cx="1358" cy="314.3164" fill="#84BE84" rx="3" ry="3" style="stroke: #038048; stroke-width: 1.0;"/><text fill="#000000" font-family="sans-serif" font-size="11" lengthAdjust="spacingAndGlyphs" textLength="427" x="1367" y="316.6245">createNewBmsNetwork(parentId: string, typeName: string): Promise&lt;any&gt;</text><ellipse cx="1358" cy="327.1211" fill="#84BE84" rx="3" ry="3" style="stroke: #038048; stroke-width: 1.0;"/><text fill="#000000" font-family="sans-serif" font-size="11" lengthAdjust="spacingAndGlyphs" textLength="436" x="1367" y="329.4292">createNewBmsDevice(parentId: string, obj: InputDataDevice): Promise&lt;any&gt;</text><ellipse cx="1358" cy="339.9258" fill="#84BE84" rx="3" ry="3" style="stroke: #038048; stroke-width: 1.0;"/><text fill="#000000" font-family="sans-serif" font-size="11" lengthAdjust="spacingAndGlyphs" textLength="530" x="1367" y="342.2339">createNewBmsEndpointGroup(parentId: string, obj: InputDataEndpointGroup): Promise&lt;any&gt;</text><ellipse cx="1358" cy="352.7305" fill="#84BE84" rx="3" ry="3" style="stroke: #038048; stroke-width: 1.0;"/><text fill="#000000" font-family="sans-serif" font-size="11" lengthAdjust="spacingAndGlyphs" textLength="460" x="1367" y="355.0386">createNewBmsEndpoint(parentId: string, obj: InputDataEndpoint): Promise&lt;any&gt;</text><!--class SpinalContext--><rect fill="#FEFECE" filter="url(#fexjfrbucklwg)" height="48" id="SpinalContext" style="stroke: #A80036; stroke-width: 1.5;" width="118" x="1252" y="473"/><ellipse cx="1267" cy="489" fill="#ADD1B2" rx="11" ry="11" style="stroke: #A80036; stroke-width: 1.0;"/><path d="M1269.3438,484.6719 L1269.5156,484.75 C1269.7344,484.4375 1269.9375,484.3438 1270.2344,484.3438 C1270.5313,484.3438 1270.8125,484.4844 1270.9688,484.75 C1271.0625,484.9063 1271.0781,485.0313 1271.0781,485.4688 L1271.0781,486.8906 C1271.0781,487.3125 1271.0469,487.5 1270.9375,487.6563 C1270.7656,487.875 1270.5,488.0156 1270.2344,488.0156 C1270.0156,488.0156 1269.7813,487.9063 1269.6406,487.7656 C1269.5,487.6406 1269.4688,487.5156 1269.4063,487.1094 C1269.3125,486.7031 1269.1406,486.4844 1268.6563,486.2031 C1268.1875,485.9531 1267.5781,485.7969 1267,485.7969 C1265.2656,485.7969 1264.0156,487.1094 1264.0156,488.8906 L1264.0156,489.9844 C1264.0156,491.6875 1265.3125,492.7813 1267.3594,492.7813 C1268.125,492.7813 1268.8125,492.6563 1269.2344,492.3906 C1269.4219,492.2969 1269.4219,492.2969 1269.875,491.8125 C1270.0625,491.625 1270.2656,491.5469 1270.4844,491.5469 C1270.9531,491.5469 1271.3438,491.9375 1271.3438,492.3906 C1271.3438,492.7813 1271.0156,493.2344 1270.4375,493.6406 C1269.6875,494.1875 1268.5313,494.4844 1267.3125,494.4844 C1264.4219,494.4844 1262.3125,492.5938 1262.3125,490.0156 L1262.3125,488.8906 C1262.3125,486.1719 1264.3125,484.0938 1266.9375,484.0938 C1267.8125,484.0938 1268.4063,484.2344 1269.3438,484.6719 Z "/><text fill="#000000" font-family="sans-serif" font-size="12" lengthAdjust="spacingAndGlyphs" textLength="86" x="1281" y="493.1543">SpinalContext</text><line style="stroke: #A80036; stroke-width: 1.5;" x1="1253" x2="1369" y1="505" y2="505"/><line style="stroke: #A80036; stroke-width: 1.5;" x1="1253" x2="1369" y1="513" y2="513"/><!--link NetworkService to SpinalContext--><path d="M1424.38,362.133 C1411.98,369.068 1400.08,376.671 1389,385 C1359.75,406.981 1337.28,443.154 1324.13,468.203 " fill="none" id="NetworkService-SpinalContext" style="stroke: #A80036; stroke-width: 1.0;"/><polygon fill="#A80036" points="1321.78,472.745,1329.4636,466.5836,1324.0742,468.3024,1322.3554,462.913,1321.78,472.745" style="stroke: #A80036; stroke-width: 1.0;"/><!--link InputData to onDataFunctionType--><path d="M1014.72,368.024 C1022.08,373.56 1029.23,379.239 1036,385 C1066.06,410.591 1095.72,444.986 1114.83,468.672 " fill="none" id="InputData-onDataFunctionType" style="stroke: #A80036; stroke-width: 1.0;"/><polygon fill="#A80036" points="1118.04,472.671,1115.5285,463.1478,1114.9113,468.7708,1109.2882,468.1537,1118.04,472.671" style="stroke: #A80036; stroke-width: 1.0;"/><!--link InputData to InputDataDevice--><path d="M757.127,368.07 C712.274,392.167 663.315,418.469 621.519,440.924 " fill="none" id="InputData-InputDataDevice" style="stroke: #A80036; stroke-width: 1.0; stroke-dasharray: 7.0,7.0;"/><!--link InputDataEndpoint to InputDataEndpointDataType--><path d="M897,559.812 C897,585.816 897,614.793 897,635.573 " fill="none" id="InputDataEndpoint-InputDataEndpointDataType" style="stroke: #A80036; stroke-width: 1.0;"/><polygon fill="#A80036" points="897,640.672,901,631.672,897,635.672,893,631.672,897,640.672" style="stroke: #A80036; stroke-width: 1.0;"/><!--link NetworkProcess to InputData--><path d="M1093.11,158.212 C1065.81,176.651 1036.48,196.454 1008.99,215.023 " fill="none" id="NetworkProcess-InputData" style="stroke: #A80036; stroke-width: 1.0;"/><polygon fill="#A80036" points="1004.589,217.992,1014.2858,216.2679,1008.732,215.1928,1009.8071,209.6391,1004.589,217.992" style="stroke: #A80036; stroke-width: 1.0;"/><!--link NetworkProcess to NetworkService--><path d="M1363.59,158.065 C1408.61,178.828 1457.41,201.332 1501.92,221.859 " fill="none" id="NetworkProcess-NetworkService" style="stroke: #A80036; stroke-width: 1.0;"/><polygon fill="#A80036" points="1506.49,223.967,1500.0008,216.5582,1501.952,221.8679,1496.6423,223.8191,1506.49,223.967" style="stroke: #A80036; stroke-width: 1.0;"/><!--link NetworkProcess to onDataFunctionType--><path d="M1195.88,158.2 C1189.82,215.706 1180.01,297.245 1167,368 C1160.64,402.575 1150.74,441.789 1143.84,467.599 " fill="none" id="NetworkProcess-onDataFunctionType" style="stroke: #A80036; stroke-width: 1.0;"/><polygon fill="#A80036" points="1142.51,472.577,1148.708,464.9229,1143.8072,467.7482,1140.9819,462.8474,1142.51,472.577" style="stroke: #A80036; stroke-width: 1.0;"/><!--link SpinalBmsNetwork to spinal.Str--><path d="M1906.03,546.574 C1890.01,562.928 1870.29,579.638 1849,590 C1827.19,600.619 1815.42,584.903 1795,598 C1780.93,607.02 1770.5,622.465 1763.43,636.147 " fill="none" id="SpinalBmsNetwork-spinal.Str" style="stroke: #A80036; stroke-width: 1.0;"/><polygon fill="#A80036" points="1761.17,640.708,1768.7614,634.4334,1763.3981,636.2319,1761.5996,630.8685,1761.17,640.708" style="stroke: #A80036; stroke-width: 1.0;"/><!--link SpinalBmsEndpointGroup to spinal.Str--><path d="M2094.89,559.56 C2079.19,571.85 2061.48,583.09 2043,590 C2017.18,599.655 1819.02,584.474 1795,598 C1780.23,606.319 1769.68,622.061 1762.72,636.084 " fill="none" id="SpinalBmsEndpointGroup-spinal.Str" style="stroke: #A80036; stroke-width: 1.0;"/><polygon fill="#A80036" points="1760.5,640.761,1767.9746,634.3477,1762.6453,636.2446,1760.7484,630.9153,1760.5,640.761" style="stroke: #A80036; stroke-width: 1.0;"/><!--link SpinalBmsDevice to spinal.Str--><path d="M1752,559.812 C1752,585.816 1752,614.793 1752,635.573 " fill="none" id="SpinalBmsDevice-spinal.Str" style="stroke: #A80036; stroke-width: 1.0;"/><polygon fill="#A80036" points="1752,640.672,1756,631.672,1752,635.672,1748,631.672,1752,640.672" style="stroke: #A80036; stroke-width: 1.0;"/><!--link SpinalBmsEndpoint to spinal.Str--><path d="M1608.28,566.091 C1623.25,575.326 1639.11,583.757 1655,590 C1677.58,598.872 1688.58,584.903 1709,598 C1723.07,607.02 1733.5,622.465 1740.57,636.147 " fill="none" id="SpinalBmsEndpoint-spinal.Str" style="stroke: #A80036; stroke-width: 1.0;"/><polygon fill="#A80036" points="1742.83,640.708,1742.4004,630.8685,1740.6019,636.2319,1735.2386,634.4334,1742.83,640.708" style="stroke: #A80036; stroke-width: 1.0;"/><!--link SpinalBmsEndpoint to spinal.Val--><path d="M1580.81,566.477 C1602.28,591.054 1625.28,617.384 1641.96,636.483 " fill="none" id="SpinalBmsEndpoint-spinal.Val" style="stroke: #A80036; stroke-width: 1.0;"/><polygon fill="#A80036" points="1645.64,640.689,1642.7399,631.2768,1642.3539,636.9205,1636.7103,636.5345,1645.64,640.689" style="stroke: #A80036; stroke-width: 1.0;"/><!--link spinal.Model to SpinalBmsNetwork--><path d="M1871.23,623.379 C1884.99,600.296 1902.32,571.237 1916.83,546.908 " fill="none" id="spinal.Model-SpinalBmsNetwork" style="stroke: #A80036; stroke-width: 1.0;"/><polygon fill="none" points="1877.11,627.174,1860.86,640.765,1865.09,620.003,1877.11,627.174" style="stroke: #A80036; stroke-width: 1.0;"/><!--link spinal.Model to SpinalBmsEndpointGroup--><path d="M1901.17,648.7408 C1941.74,636.101 1997.8,616.012 2043,590 C2058.13,581.294 2073.31,570.598 2087.42,559.616 " fill="none" id="spinal.Model-SpinalBmsEndpointGroup" style="stroke: #A80036; stroke-width: 1.0;"/><polygon fill="none" points="1902.95,655.5145,1881.78,654.5829,1898.91,642.11,1902.95,655.5145" style="stroke: #A80036; stroke-width: 1.0;"/><!--link spinal.Model to SpinalBmsDevice--><path d="M1823.63,623.168 C1812.71,604.091 1799.48,580.968 1787.37,559.812 " fill="none" id="spinal.Model-SpinalBmsDevice" style="stroke: #A80036; stroke-width: 1.0;"/><polygon fill="none" points="1829.79,619.837,1833.65,640.672,1817.64,626.791,1829.79,619.837" style="stroke: #A80036; stroke-width: 1.0;"/><!--link spinal.Model to SpinalBmsEndpoint--><path d="M1824.03,623.838 C1816.18,613.673 1806.44,603.958 1795,598 C1767.36,583.602 1684.49,600.079 1655,590 C1638.18,584.25 1621.52,575.758 1605.96,566.222 " fill="none" id="spinal.Model-SpinalBmsEndpoint" style="stroke: #A80036; stroke-width: 1.0;"/><polygon fill="none" points="1830.07,620.284,1835.42,640.788,1818.45,628.094,1830.07,620.284" style="stroke: #A80036; stroke-width: 1.0;"/><!--link NetworkService to SpinalBmsNetwork--><path d="M1814.7,362.202 C1826.67,369.31 1838.25,376.918 1849,385 C1872.22,402.454 1893.92,426.25 1910.88,447.334 " fill="none" id="NetworkService-SpinalBmsNetwork" style="stroke: #A80036; stroke-width: 1.0; stroke-dasharray: 7.0,7.0;"/><!--link NetworkService to SpinalBmsEndpointGroup--><path d="M1961.02,348.831 C1989.53,358.926 2017.33,370.87 2043,385 C2065.89,397.597 2087.35,416.13 2105.29,434.459 " fill="none" id="NetworkService-SpinalBmsEndpointGroup" style="stroke: #A80036; stroke-width: 1.0; stroke-dasharray: 7.0,7.0;"/><!--link NetworkService to SpinalBmsDevice--><path d="M1687.04,362.106 C1698.38,385.472 1710.99,411.474 1722.07,434.302 " fill="none" id="NetworkService-SpinalBmsDevice" style="stroke: #A80036; stroke-width: 1.0; stroke-dasharray: 7.0,7.0;"/><!--link NetworkService to SpinalBmsEndpoint--><path d="M1609.16,362.106 C1595.21,383.296 1579.83,406.653 1565.87,427.846 " fill="none" id="NetworkService-SpinalBmsEndpoint" style="stroke: #A80036; stroke-width: 1.0; stroke-dasharray: 7.0,7.0;"/><!--
@startuml
package InputData <<Folder>> {

class InputData{
  -onData : onDataFunctionType
  -devices : InputDataDevice[]
  -onDataInterval()
  +setOnDataCBFunc(onData: onDataFunctionType): void
  -generateData()
  -generateDataDevice(id: number): InputDataDevice
  -updateDevice(deviceOrEnpointGroup: InputDataDevice|InputDataEndpointGroup): void
  -getAndUpdateOneRandomDevice(): InputDataDevice
}
interface onDataFunctionType{
}

package InputDataObject <<Folder>> {

class InputDataEndpoint{
  +id : string
  +name : string
  +path : string
  +currentValue : number|string
  +unit : string
  +dataType : InputDataEndpointDataType
}

class InputDataDevice{
  +id : string
  +name : string
  +type : string
  +path : string
  +children : (InputDataEndpoint|InputDataEndpointGroup|InputDataDevice)[]
}

class InputDataEndpointGroup{
  +id : string
  +name : string
  +type : string
  +path : string
  +children : (InputDataEndpoint)[]
}

enum InputDataEndpointDataType{
}


}
}
class NetworkProcess{
  -inputData : InputData
  -nwService : NetworkService
  -contextId : string
  -networkId : string
  +init(forgeFile: ForgeFileItem, configOrgan: ConfigOrgan): Promise<void>
  +updateData(obj: InputDataDevice): Promise<void>
  -updateModel(node: any, reference: InputDataDevice | InputDataEndpointGroup): Promise<void>
  -updateEndpoint(node: any, reference: InputDataEndpoint): Promise<void>
}

interface ConfigOrgan{
  +contextName : string
  +contextType : string
  +networkType : string
}

package bms-network <<Folder>> {

class SpinalBmsNetwork{
  +relationName : string
  +nodeTypeName : string
  +id : spinal.Str
  +name : spinal.Str
}

class SpinalBmsDevice{
  +relationName : string
  +nodeTypeName : string
  +id : spinal.Str
  +name : spinal.Str
  +type : spinal.Str
  +path : spinal.Str
}

class SpinalBmsEndpointGroup{
  +relationName : string
  +nodeTypeName : string
  +id : spinal.Str
  +name : spinal.Str
  +type : spinal.Str
  +path : spinal.Str
}

class SpinalBmsEndpoint{
  +relationName : string
  +nodeTypeName : string
  +id : spinal.Str
  +path : spinal.Str
  +currentValue : spinal.Str | spinal.Val
  +unit : spinal.Str
  +dataType : spinal.Str
}
}
class NetworkService{
  -context : SpinalContext
  -contextId : string
  +init(forgeFile: spinal.Model, configOrgan: ConfigOrgan): Promise<{contextId:string, networkId: string}>
  +createNewBmsNetwork(parentId: string, typeName: string): Promise<any>
  +createNewBmsDevice(parentId: string, obj: InputDataDevice): Promise<any>
  +createNewBmsEndpointGroup(parentId: string, obj: InputDataEndpointGroup): Promise<any>
  +createNewBmsEndpoint(parentId: string, obj: InputDataEndpoint): Promise<any>
}

NetworkService - -> SpinalContext
InputData - -> onDataFunctionType
InputData .. InputDataDevice
InputDataEndpoint - -> InputDataEndpointDataType
NetworkProcess - -> InputData
NetworkProcess - -> NetworkService
NetworkProcess - -> onDataFunctionType
SpinalBmsNetwork - -> spinal.Str
SpinalBmsEndpointGroup - -> spinal.Str
SpinalBmsDevice - -> spinal.Str
SpinalBmsEndpoint - -> spinal.Str
SpinalBmsEndpoint - -> spinal.Val
spinal.Model <|- - SpinalBmsNetwork
spinal.Model <|- - SpinalBmsEndpointGroup
spinal.Model <|- - SpinalBmsDevice
spinal.Model <|- - SpinalBmsEndpoint
NetworkService .. SpinalBmsNetwork
NetworkService .. SpinalBmsEndpointGroup
NetworkService .. SpinalBmsDevice
NetworkService .. SpinalBmsEndpoint
@enduml

PlantUML version 1.2018.14beta12(Unknown compile time)
(GPL source distribution)
Java Runtime: Java(TM) SE Runtime Environment
JVM: Java HotSpot(TM) 64-Bit Server VM
Java Version: 1.7.0_25-b15
Operating System: Linux
Default Encoding: UTF-8
Language: en
Country: US
--></g></svg>